<?xml version="1.0" encoding="utf-8"?>
<!-- Generator: Adobe Illustrator 16.0.4, SVG Export Plug-In . SVG Version: 6.00 Build 0)  -->
<!DOCTYPE svg PUBLIC "-//W3C//DTD SVG 1.1//EN" "http://www.w3.org/Graphics/SVG/1.1/DTD/svg11.dtd">
<svg version="1.1" id="Layer_1" xmlns="http://www.w3.org/2000/svg" xmlns:xlink="http://www.w3.org/1999/xlink" x="0px" y="0px"
	 width="96.301px" height="96.301px" viewBox="0 0 96.301 96.301" enable-background="new 0 0 96.301 96.301" xml:space="preserve">
<g>
	<path fill="#323254" d="M53.292,33.445l0.195,0.161c-1.59,0.972-3.693,1.887-6.307,2.748c-2.615,0.859-5.629,1.744-9.037,2.654
		c-2.471,4.449-5.004,8.664-7.604,12.643c-2.6,3.98-5.041,7.143-7.328,9.49c-1.123,1.132-2.494,2.076-4.111,2.833
		c-1.617,0.756-3.342,1.135-5.177,1.135c-2.164-0.024-3.999-0.773-5.505-2.248c-0.979-0.979-1.65-2.188-2.013-3.629
		c-0.363-1.441-0.276-3.015,0.259-4.719c0.534-1.705,1.658-3.433,3.37-5.184c1.407-1.361,3.403-2.605,5.987-3.733
		c2.582-1.128,5.504-2.178,8.762-3.153c3.256-0.975,6.6-1.921,10.033-2.839c0.496-0.138,0.99-0.271,1.479-0.401
		c1.621-2.904,3.131-5.691,4.531-8.36c2.66-5.1,4.943-9.642,6.852-13.63c1.906-3.986,3.18-6.729,3.814-8.228
		c-1.049,1.262-2.697,2.496-4.943,3.704c-2.248,1.208-4.891,2.492-7.926,3.853c-1.682,0.773-3.414,1.588-5.195,2.443
		c-2.217,1.108-4.037,2.349-5.463,3.721c-1.426,1.373-2.518,2.644-3.275,3.813c-0.816,1.255-1.4,2.296-1.754,3.126
		c-0.352,0.829-0.523,1.262-0.516,1.301c-0.016,0.03-0.037,0.053-0.062,0.068c-0.027,0.016-0.061,0.02-0.098,0.012
		c-0.031-0.015-0.055-0.036-0.07-0.062c-0.014-0.027-0.018-0.056-0.01-0.086c0-0.046,0.178-0.489,0.533-1.331
		c0.354-0.841,0.945-1.892,1.771-3.154c0.764-1.185,1.869-2.471,3.314-3.859c1.443-1.387,3.287-2.643,5.527-3.767
		c1.789-0.856,3.52-1.67,5.195-2.443c3.271-1.467,6.076-2.846,8.412-4.134c2.334-1.288,3.934-2.613,4.799-3.974
		c0.029-0.061,0.062-0.11,0.098-0.149c0.033-0.038,0.07-0.053,0.109-0.046c0.006,0,0.018,0,0.035,0
		c0.061-0.007,0.176-0.003,0.348,0.013c0.172,0.015,0.342,0.07,0.512,0.166c0.166,0.096,0.273,0.263,0.318,0.504
		c0.049,0.241-0.025,0.583-0.217,1.026c-0.604,1.354-1.363,3.005-2.281,4.955c-1.5,3.242-4.1,8.444-7.799,15.608
		c-1.055,2.019-1.902,3.614-2.539,4.788c-0.641,1.173-1.307,2.383-2.002,3.629c3.324-0.887,6.264-1.75,8.818-2.591
		C49.689,35.276,51.74,34.386,53.292,33.445z M21.298,61.37c2.254-2.316,4.668-5.441,7.242-9.375
		c2.57-3.934,5.08-8.098,7.527-12.495c-0.367,0.099-0.738,0.199-1.113,0.298c-0.045,0.015-0.094,0.027-0.148,0.034
		c-3.418,0.91-6.748,1.852-9.994,2.828c-3.246,0.974-6.152,2.019-8.721,3.136c-2.568,1.115-4.553,2.351-5.951,3.704
		c-1.675,1.712-2.775,3.397-3.303,5.058c-0.528,1.658-0.615,3.191-0.264,4.599c0.351,1.407,1,2.583,1.948,3.531
		c0.972,0.964,2.155,1.613,3.55,1.95c1.396,0.336,2.893,0.257,4.488-0.236C18.16,63.909,19.738,62.898,21.298,61.37z"/>
	<path fill="#323254" d="M66.882,33.571l0.16,0.126c-1.598,1.926-3.182,3.593-4.752,5c-1.572,1.407-3.127,2.497-4.668,3.268
		c-1.541,0.772-3.061,1.159-4.559,1.159c-0.252,0-0.57-0.041-0.951-0.121c-0.385-0.08-0.766-0.222-1.148-0.424
		c-0.381-0.203-0.703-0.49-0.963-0.86c-0.26-0.371-0.389-0.851-0.389-1.439c0-0.902,0.197-1.873,0.596-2.913
		c0.396-1.04,1.006-2.034,1.822-2.981c1.025-1.116,2.031-1.892,3.018-2.328c0.986-0.437,1.91-0.653,2.773-0.653
		c0.689,0,1.229,0.076,1.619,0.229c0.389,0.153,0.676,0.34,0.859,0.562c0.184,0.223,0.293,0.451,0.332,0.688
		c0.014,0.069,0.025,0.176,0.035,0.322c0,0.152-0.01,0.284-0.029,0.396c-0.02,0.11-0.033,0.186-0.041,0.224
		c-0.008,0.008-0.012,0.016-0.012,0.023c-0.061,0.259-0.186,0.546-0.377,0.859c-0.359,0.65-1.203,1.29-2.535,1.92
		c-1.33,0.631-3.432,1.081-6.309,1.348c-0.334,0.81-0.504,1.579-0.504,2.305c0,0.65,0.127,1.147,0.379,1.491
		c0.254,0.344,0.555,0.587,0.906,0.728c0.352,0.142,0.691,0.222,1.02,0.241c0.33,0.019,0.586,0.021,0.77,0.005
		c1.424-0.099,2.887-0.59,4.393-1.473s2.986-2.004,4.443-3.366C64.228,36.545,65.599,35.101,66.882,33.571z M53.544,34.626
		c-0.887,0.979-1.568,1.996-2.051,3.05c2.736-0.259,4.74-0.686,6.014-1.278c1.271-0.593,2.082-1.19,2.426-1.794
		c0.213-0.336,0.348-0.635,0.402-0.894c0.037-0.146,0.049-0.362,0.033-0.648s-0.137-0.556-0.367-0.809
		c-0.229-0.252-0.67-0.378-1.318-0.378c-0.834,0-1.691,0.231-2.574,0.693C55.226,33.031,54.371,33.717,53.544,34.626z"/>
	<path fill="#323254" d="M74.957,33.364l0.193,0.15c-1.543,1.751-3.299,3.414-5.264,4.989c-1.963,1.574-4.119,3.139-6.467,4.691
		c-1.102,2.438-2.301,4.973-3.602,7.603c-2.729,5.489-5.213,9.809-7.453,12.959c-2.822,3.96-5.17,5.94-7.041,5.94
		c-1.018,0-1.877-0.266-2.582-0.796c-0.701-0.532-1.195-1.283-1.48-2.254c-0.578-2.202-0.061-4.736,1.561-7.604
		c1.928-3.295,4.975-6.261,9.141-8.899c0.414-0.252,1.24-0.773,2.477-1.56c1.238-0.788,2.557-1.628,3.951-2.523
		c1.395-0.895,2.541-1.64,3.436-2.235c1.123-2.516,2.129-4.823,3.014-6.921c0.889-2.099,1.527-3.633,1.918-4.604
		c0.152-0.367,0.252-0.604,0.297-0.711c0.031-0.054,0.107-0.073,0.23-0.058c0.121,0.016,0.254,0.05,0.395,0.104
		c0.141,0.053,0.262,0.114,0.361,0.183s0.141,0.126,0.127,0.172c-0.107,0.298-0.568,1.435-1.383,3.412
		c-0.814,1.976-1.875,4.436-3.184,7.379c2.273-1.506,4.357-3.025,6.258-4.559C71.757,36.688,73.457,35.07,74.957,33.364z
		 M58.718,50.361c0.588-1.186,1.096-2.223,1.523-3.114c0.428-0.891,0.891-1.89,1.389-2.999c-0.855,0.566-1.959,1.281-3.309,2.145
		c-1.35,0.863-2.623,1.676-3.818,2.437c-1.197,0.76-2.002,1.267-2.414,1.52c-4.137,2.614-7.158,5.55-9.061,8.808
		c-1.582,2.813-2.094,5.286-1.537,7.419c0.184,0.604,0.436,1.094,0.758,1.469c0.32,0.374,0.674,0.647,1.059,0.82
		c0.389,0.171,0.762,0.257,1.119,0.257c1.621,0,3.641-1.588,6.061-4.765C52.91,61.18,55.652,56.515,58.718,50.361z M68.728,30.968
		c-0.107,0.153-0.268,0.201-0.48,0.144c-0.215-0.057-0.398-0.168-0.557-0.333c-0.156-0.165-0.201-0.331-0.131-0.499
		c0.066-0.13,0.121-0.226,0.16-0.287c0.031-0.038,0.055-0.076,0.068-0.114c0.076-0.115,0.223-0.147,0.441-0.098
		c0.219,0.049,0.412,0.146,0.584,0.292s0.229,0.303,0.166,0.47c-0.045,0.092-0.113,0.214-0.205,0.367
		C68.759,30.933,68.746,30.953,68.728,30.968z"/>
</g>
<g>
	<path fill="#323254" d="M16.56,64.402c1.6-0.493,3.178-1.504,4.738-3.033c2.254-2.316,4.668-5.441,7.242-9.375
		c2.57-3.934,5.08-8.098,7.527-12.495c-0.367,0.099-0.738,0.199-1.113,0.298c-0.045,0.015-0.094,0.027-0.148,0.034
		c-3.418,0.91-6.748,1.852-9.994,2.828c-3.246,0.974-6.152,2.019-8.721,3.136c-0.877,0.38-1.68,0.775-2.419,1.185v17.86
		C14.595,64.858,15.558,64.712,16.56,64.402z"/>
	<path fill="#323254" d="M24.785,42.442c3.256-0.975,6.6-1.921,10.033-2.839c0.496-0.138,0.99-0.271,1.479-0.401
		c1.621-2.904,3.131-5.691,4.531-8.36c2.646-5.073,4.922-9.596,6.822-13.568h-10.6c-1.186,0.553-2.387,1.117-3.621,1.71
		c-2.217,1.108-4.037,2.349-5.463,3.721c-1.426,1.373-2.518,2.644-3.275,3.813c-0.816,1.255-1.4,2.296-1.754,3.126
		c-0.352,0.829-0.523,1.262-0.516,1.301c-0.016,0.03-0.037,0.053-0.062,0.068c-0.027,0.016-0.061,0.02-0.098,0.012
		c-0.031-0.015-0.055-0.036-0.07-0.062c-0.014-0.027-0.018-0.056-0.01-0.086c0-0.046,0.178-0.489,0.533-1.331
		c0.354-0.841,0.945-1.892,1.771-3.154c0.764-1.185,1.869-2.471,3.314-3.859c1.443-1.387,3.287-2.643,5.527-3.767
		c1.074-0.515,2.121-1.009,3.154-1.493h-22.81v29.473c0.722-0.396,1.501-0.781,2.351-1.151
		C18.605,44.467,21.527,43.417,24.785,42.442z"/>
	<path fill="#323254" d="M57.507,36.398c1.271-0.593,2.082-1.19,2.426-1.794c0.213-0.336,0.348-0.635,0.402-0.894
		c0.037-0.146,0.049-0.362,0.033-0.648s-0.137-0.556-0.367-0.809c-0.229-0.252-0.67-0.378-1.318-0.378
		c-0.834,0-1.691,0.231-2.574,0.693c-0.883,0.463-1.738,1.149-2.564,2.059c-0.887,0.979-1.568,1.996-2.051,3.05
		C54.23,37.417,56.234,36.991,57.507,36.398z"/>
	<path fill="#323254" d="M49.425,17.273c-1.543,3.187-3.73,7.523-6.568,13.018c-1.055,2.019-1.902,3.614-2.539,4.788
		c-0.641,1.173-1.307,2.383-2.002,3.629c3.324-0.887,6.264-1.75,8.818-2.591c2.148-0.708,3.939-1.451,5.379-2.229
		c0.857-0.851,1.703-1.462,2.535-1.83c0.986-0.437,1.91-0.653,2.773-0.653c0.689,0,1.229,0.076,1.619,0.229
		c0.389,0.153,0.676,0.34,0.859,0.562c0.184,0.223,0.293,0.451,0.332,0.688c0.014,0.069,0.025,0.176,0.035,0.322
		c0,0.152-0.01,0.284-0.029,0.396c-0.02,0.11-0.033,0.186-0.041,0.224c-0.008,0.008-0.012,0.016-0.012,0.023
		c-0.061,0.259-0.186,0.546-0.377,0.859c-0.359,0.65-1.203,1.29-2.535,1.92c-1.33,0.631-3.432,1.081-6.309,1.348
		c-0.334,0.81-0.504,1.579-0.504,2.305c0,0.65,0.127,1.147,0.379,1.491c0.254,0.344,0.555,0.587,0.906,0.728
		c0.352,0.142,0.691,0.222,1.02,0.241c0.33,0.019,0.586,0.021,0.77,0.005c1.424-0.099,2.887-0.59,4.393-1.473
		s2.986-2.004,4.443-3.366c1.002-0.936,1.961-1.915,2.881-2.931c0.477-1.137,0.846-2.034,1.105-2.677
		c0.152-0.367,0.252-0.604,0.297-0.711c0.031-0.054,0.107-0.073,0.23-0.058c0.121,0.016,0.254,0.05,0.395,0.104
		c0.141,0.053,0.262,0.114,0.361,0.183s0.141,0.126,0.127,0.172c-0.107,0.298-0.568,1.435-1.383,3.412
		c-0.814,1.976-1.875,4.436-3.184,7.379c2.273-1.506,4.357-3.025,6.258-4.559c1.898-1.533,3.598-3.151,5.098-4.857l0.193,0.15
		c-1.543,1.751-3.299,3.414-5.264,4.989c-1.963,1.574-4.119,3.139-6.467,4.691c-1.102,2.438-2.301,4.973-3.602,7.603
		c-2.729,5.489-5.213,9.809-7.453,12.959c-2.822,3.96-5.17,5.94-7.041,5.94c-1.018,0-1.877-0.266-2.582-0.796
		c-0.701-0.532-1.195-1.283-1.48-2.254c-0.578-2.202-0.061-4.736,1.561-7.604c1.928-3.295,4.975-6.261,9.141-8.899
		c0.414-0.252,1.24-0.773,2.477-1.56c1.238-0.788,2.557-1.628,3.951-2.523c1.395-0.895,2.541-1.64,3.436-2.235
		c1.123-2.516,2.129-4.823,3.014-6.921c0.199-0.469,0.383-0.905,0.557-1.318c-1.041,1.146-2.076,2.191-3.105,3.113
		c-1.572,1.407-3.127,2.497-4.668,3.268c-1.541,0.772-3.061,1.159-4.559,1.159c-0.252,0-0.57-0.041-0.951-0.121
		c-0.385-0.08-0.766-0.222-1.148-0.424c-0.381-0.203-0.703-0.49-0.963-0.86c-0.26-0.371-0.389-0.851-0.389-1.439
		c0-0.902,0.197-1.873,0.596-2.913c0.393-1.028,0.992-2.011,1.797-2.949c-1.348,0.673-2.951,1.317-4.824,1.935
		c-2.615,0.859-5.629,1.744-9.037,2.654c-2.471,4.449-5.004,8.664-7.604,12.643c-2.6,3.98-5.041,7.143-7.328,9.49
		c-1.123,1.132-2.494,2.076-4.111,2.833c-1.617,0.756-3.342,1.135-5.177,1.135c-0.085-0.001-0.168-0.011-0.252-0.014v23.19h71.011
		V17.273H49.425z M68.98,30.543c-0.045,0.092-0.113,0.214-0.205,0.367c-0.016,0.022-0.029,0.042-0.047,0.057
		c-0.107,0.153-0.268,0.201-0.48,0.144c-0.215-0.057-0.398-0.168-0.557-0.333c-0.156-0.165-0.201-0.331-0.131-0.499
		c0.066-0.13,0.121-0.226,0.16-0.287c0.031-0.038,0.055-0.076,0.068-0.114c0.076-0.115,0.223-0.147,0.441-0.098
		c0.219,0.049,0.412,0.146,0.584,0.292S69.042,30.376,68.98,30.543z"/>
	<path fill="#323254" d="M54.503,48.83c-1.197,0.76-2.002,1.267-2.414,1.52c-4.137,2.614-7.158,5.55-9.061,8.808
		c-1.582,2.813-2.094,5.286-1.537,7.419c0.184,0.604,0.436,1.094,0.758,1.469c0.32,0.374,0.674,0.647,1.059,0.82
		c0.389,0.171,0.762,0.257,1.119,0.257c1.621,0,3.641-1.588,6.061-4.765c2.422-3.177,5.164-7.842,8.23-13.996
		c0.588-1.186,1.096-2.223,1.523-3.114c0.428-0.891,0.891-1.89,1.389-2.999c-0.855,0.566-1.959,1.281-3.309,2.145
		C56.972,47.256,55.699,48.069,54.503,48.83z"/>
	<path fill="#F8DDDB" d="M27.8,22.533c-1.445,1.388-2.551,2.674-3.314,3.859c-0.826,1.262-1.418,2.312-1.771,3.154
		c-0.355,0.841-0.533,1.285-0.533,1.331c-0.008,0.03-0.004,0.059,0.01,0.086c0.016,0.026,0.039,0.048,0.07,0.062
		c0.037,0.008,0.07,0.004,0.098-0.012c0.025-0.015,0.047-0.038,0.062-0.068c-0.008-0.039,0.164-0.473,0.516-1.301
		c0.354-0.83,0.938-1.871,1.754-3.126c0.758-1.169,1.85-2.44,3.275-3.813c1.426-1.372,3.246-2.613,5.463-3.721
		c1.234-0.593,2.436-1.158,3.621-1.71h-0.568c-1.033,0.484-2.08,0.978-3.154,1.493C31.087,19.89,29.244,21.146,27.8,22.533z"/>
	<path fill="#F8DDDB" d="M19.101,63.973c1.617-0.757,2.988-1.701,4.111-2.833c2.287-2.348,4.729-5.51,7.328-9.49
		c2.6-3.979,5.133-8.194,7.604-12.643c3.408-0.91,6.422-1.795,9.037-2.654c1.873-0.617,3.477-1.262,4.824-1.935
		c0.01-0.01,0.018-0.022,0.025-0.033c0.162-0.176,0.322-0.339,0.482-0.498c-1.439,0.779-3.23,1.522-5.379,2.229
		c-2.555,0.841-5.494,1.705-8.818,2.591c0.695-1.246,1.361-2.456,2.002-3.629c0.637-1.174,1.484-2.77,2.539-4.788
		c2.838-5.495,5.025-9.831,6.568-13.018H47.65c-1.9,3.972-4.176,8.495-6.822,13.568c-1.4,2.669-2.91,5.456-4.531,8.36
		c-0.488,0.13-0.982,0.264-1.479,0.401c-3.434,0.918-6.777,1.864-10.033,2.839c-3.258,0.975-6.18,2.025-8.762,3.153
		c-0.85,0.37-1.629,0.755-2.351,1.151v0.235c0.739-0.409,1.542-0.804,2.419-1.185c2.568-1.117,5.475-2.162,8.721-3.136
		c3.246-0.976,6.576-1.917,9.994-2.828c0.055-0.007,0.104-0.019,0.148-0.034c0.375-0.099,0.746-0.199,1.113-0.298
		c-2.447,4.396-4.957,8.561-7.527,12.495c-2.574,3.934-4.988,7.059-7.242,9.375c-1.561,1.529-3.139,2.54-4.738,3.033
		c-1.002,0.31-1.965,0.456-2.888,0.438v0.253c0.084,0.003,0.167,0.013,0.252,0.014C15.759,65.108,17.484,64.729,19.101,63.973z"/>
	<path fill="#F8DDDB" d="M53.488,33.605c-0.451,0.276-0.949,0.546-1.482,0.813c-0.805,0.938-1.404,1.921-1.797,2.949
		c-0.398,1.04-0.596,2.011-0.596,2.913c0,0.589,0.129,1.068,0.389,1.439c0.26,0.371,0.582,0.657,0.963,0.86
		c0.383,0.202,0.764,0.344,1.148,0.424c0.381,0.081,0.699,0.121,0.951,0.121c1.498,0,3.018-0.386,4.559-1.159
		c1.541-0.771,3.096-1.861,4.668-3.268c1.029-0.921,2.064-1.967,3.105-3.113c0.09-0.211,0.174-0.413,0.256-0.61
		c-0.92,1.017-1.879,1.995-2.881,2.931c-1.457,1.361-2.938,2.483-4.443,3.366s-2.969,1.374-4.393,1.473
		c-0.184,0.016-0.439,0.014-0.77-0.005c-0.328-0.019-0.668-0.099-1.02-0.241c-0.352-0.141-0.652-0.384-0.906-0.728
		c-0.252-0.344-0.379-0.841-0.379-1.491c0-0.726,0.17-1.495,0.504-2.305c2.877-0.268,4.979-0.717,6.309-1.348
		c1.332-0.63,2.176-1.271,2.535-1.92c0.191-0.313,0.316-0.6,0.377-0.859c0-0.008,0.004-0.015,0.012-0.023
		c0.008-0.038,0.021-0.113,0.041-0.224c0.02-0.111,0.029-0.244,0.029-0.396c-0.01-0.146-0.021-0.253-0.035-0.322
		c-0.039-0.237-0.148-0.465-0.332-0.688c-0.184-0.221-0.471-0.408-0.859-0.562c-0.391-0.153-0.93-0.229-1.619-0.229
		c-0.863,0-1.787,0.217-2.773,0.653c-0.832,0.368-1.678,0.979-2.535,1.83c0.271-0.146,0.533-0.293,0.779-0.443L53.488,33.605z
		 M56.109,32.567c0.883-0.462,1.74-0.693,2.574-0.693c0.648,0,1.09,0.125,1.318,0.378c0.23,0.252,0.352,0.522,0.367,0.809
		s0.004,0.503-0.033,0.648c-0.055,0.259-0.189,0.558-0.402,0.894c-0.344,0.604-1.154,1.202-2.426,1.794
		c-1.273,0.593-3.277,1.02-6.014,1.278c0.482-1.054,1.164-2.071,2.051-3.05C54.371,33.717,55.226,33.031,56.109,32.567z"/>
	<path fill="#F8DDDB" d="M52.031,34.386c-0.008,0.011-0.016,0.022-0.025,0.033c0.533-0.267,1.031-0.537,1.482-0.813l-0.195-0.161
		c-0.246,0.149-0.508,0.296-0.779,0.443C52.353,34.046,52.193,34.21,52.031,34.386z"/>
	<path fill="#F8DDDB" d="M67.042,33.698c-0.551,0.664-1.1,1.286-1.646,1.887c-0.174,0.413-0.357,0.849-0.557,1.318
		c-0.885,2.098-1.891,4.406-3.014,6.921c-0.895,0.595-2.041,1.341-3.436,2.235c-1.395,0.895-2.713,1.735-3.951,2.523
		c-1.236,0.787-2.062,1.308-2.477,1.56c-4.166,2.638-7.213,5.604-9.141,8.899c-1.621,2.867-2.139,5.401-1.561,7.604
		c0.285,0.971,0.779,1.722,1.48,2.254c0.705,0.531,1.564,0.796,2.582,0.796c1.871,0,4.219-1.98,7.041-5.94
		c2.24-3.15,4.725-7.47,7.453-12.959c1.301-2.63,2.5-5.165,3.602-7.603c2.348-1.552,4.504-3.117,6.467-4.691
		c1.965-1.575,3.721-3.238,5.264-4.989l-0.193-0.15c-1.5,1.706-3.199,3.325-5.098,4.857c-1.9,1.533-3.984,3.052-6.258,4.559
		c1.309-2.943,2.369-5.403,3.184-7.379c0.814-1.977,1.275-3.114,1.383-3.412c0.014-0.046-0.027-0.104-0.127-0.172
		s-0.221-0.13-0.361-0.183c-0.141-0.054-0.273-0.088-0.395-0.104c-0.123-0.015-0.199,0.004-0.23,0.058
		c-0.045,0.106-0.145,0.344-0.297,0.711c-0.26,0.643-0.629,1.54-1.105,2.677c0.418-0.46,0.83-0.927,1.23-1.404L67.042,33.698z
		 M60.242,47.247c-0.428,0.891-0.936,1.929-1.523,3.114c-3.066,6.154-5.809,10.819-8.23,13.996c-2.42,3.177-4.439,4.765-6.061,4.765
		c-0.357,0-0.73-0.086-1.119-0.257c-0.385-0.173-0.738-0.446-1.059-0.82c-0.322-0.375-0.574-0.864-0.758-1.469
		c-0.557-2.133-0.045-4.606,1.537-7.419c1.902-3.258,4.924-6.194,9.061-8.808c0.412-0.253,1.217-0.76,2.414-1.52
		c1.195-0.761,2.469-1.574,3.818-2.437c1.35-0.864,2.453-1.579,3.309-2.145C61.132,45.356,60.669,46.356,60.242,47.247z"/>
	<path fill="#F8DDDB" d="M68.23,29.781c-0.219-0.05-0.365-0.018-0.441,0.098c-0.014,0.039-0.037,0.077-0.068,0.114
		c-0.039,0.061-0.094,0.157-0.16,0.287c-0.07,0.168-0.025,0.334,0.131,0.499c0.158,0.165,0.342,0.275,0.557,0.333
		c0.213,0.057,0.373,0.009,0.48-0.144c0.018-0.015,0.031-0.035,0.047-0.057c0.092-0.153,0.16-0.275,0.205-0.367
		c0.062-0.167,0.006-0.325-0.166-0.47S68.449,29.831,68.23,29.781z"/>
	<path fill="#F8DDDB" d="M67.042,33.698l-0.16-0.126c-0.4,0.477-0.812,0.944-1.23,1.404c-0.082,0.197-0.166,0.399-0.256,0.61
		C65.943,34.983,66.492,34.361,67.042,33.698z"/>
</g>
<g>
	<g>
		<path fill="#F8DDDB" d="M32.988,75.017c0.047,0.056,0.07,0.126,0.07,0.21c0,0.043-0.008,0.092-0.023,0.151l-1.617,5.489
			c-0.027,0.085-0.068,0.149-0.123,0.194c-0.057,0.045-0.121,0.067-0.195,0.067s-0.139-0.023-0.195-0.071
			c-0.055-0.048-0.094-0.108-0.113-0.183l-1.285-4.688l-1.277,4.68c-0.027,0.08-0.068,0.143-0.123,0.19
			c-0.057,0.048-0.121,0.071-0.193,0.071c-0.076,0-0.139-0.023-0.195-0.071s-0.094-0.108-0.115-0.183l-1.625-5.497
			c-0.016-0.059-0.025-0.106-0.025-0.143c0-0.09,0.027-0.162,0.08-0.218c0.053-0.055,0.121-0.083,0.207-0.083
			c0.146,0,0.248,0.079,0.301,0.238l1.373,4.783l1.299-4.648c0.018-0.058,0.053-0.106,0.107-0.143
			c0.057-0.037,0.117-0.056,0.188-0.056c0.068,0,0.129,0.019,0.182,0.056s0.09,0.087,0.111,0.15l1.309,4.648l1.381-4.822
			c0.041-0.138,0.143-0.206,0.301-0.206C32.873,74.934,32.939,74.961,32.988,75.017z"/>
		<path fill="#F8DDDB" d="M39.25,75.021c0.061-0.059,0.133-0.087,0.217-0.087c0.092,0,0.164,0.028,0.223,0.087
			s0.088,0.132,0.088,0.223v5.576c0,0.085-0.029,0.157-0.088,0.218c-0.059,0.061-0.131,0.091-0.223,0.091
			c-0.104,0-0.182-0.034-0.229-0.103l-3.801-4.981v4.775c0,0.085-0.029,0.157-0.086,0.218c-0.059,0.061-0.133,0.091-0.223,0.091
			s-0.164-0.029-0.223-0.087s-0.086-0.132-0.086-0.222v-5.576c0-0.09,0.027-0.164,0.086-0.223s0.133-0.087,0.223-0.087
			c0.096,0,0.176,0.037,0.238,0.11l3.791,4.981v-4.782C39.158,75.153,39.189,75.08,39.25,75.021z"/>
		<path fill="#F8DDDB" d="M46.408,80.617c0.059,0.056,0.088,0.126,0.088,0.21s-0.029,0.156-0.088,0.214s-0.133,0.087-0.221,0.087
			h-3.721c-0.084,0-0.158-0.03-0.219-0.091c-0.061-0.061-0.092-0.133-0.092-0.218v-5.576c0-0.09,0.031-0.164,0.092-0.223
			s0.135-0.087,0.219-0.087h3.721c0.088,0,0.162,0.028,0.221,0.087s0.088,0.129,0.088,0.214s-0.029,0.155-0.088,0.21
			s-0.133,0.083-0.221,0.083h-3.412v2.189h2.482c0.09,0,0.164,0.029,0.221,0.087c0.061,0.058,0.09,0.129,0.09,0.214
			c0,0.084-0.031,0.156-0.092,0.213c-0.061,0.059-0.135,0.088-0.219,0.088h-2.482v2.212h3.412
			C46.275,80.534,46.349,80.561,46.408,80.617z"/>
		<path fill="#F8DDDB" d="M52.642,75.013c0.053,0.052,0.078,0.122,0.078,0.206c0,0.079-0.025,0.146-0.078,0.198
			s-0.121,0.079-0.205,0.079h-1.889v5.323c0,0.085-0.029,0.157-0.088,0.218c-0.059,0.061-0.131,0.091-0.223,0.091
			c-0.084,0-0.156-0.03-0.219-0.091c-0.061-0.061-0.09-0.133-0.09-0.218v-5.323h-1.881c-0.084,0-0.152-0.026-0.205-0.079
			s-0.08-0.119-0.08-0.198c0-0.084,0.027-0.154,0.08-0.206c0.053-0.053,0.121-0.079,0.205-0.079h4.389
			C52.521,74.934,52.589,74.96,52.642,75.013z"/>
		<path fill="#F8DDDB" d="M58.369,80.867c0,0.08-0.029,0.143-0.086,0.19c-0.061,0.048-0.137,0.071-0.23,0.071
			c-0.064,0-0.117-0.013-0.158-0.039c-0.043-0.027-0.08-0.066-0.111-0.119l-1.428-2.27H56.22h-1.176v2.119
			c0,0.09-0.027,0.164-0.086,0.222s-0.133,0.087-0.221,0.087c-0.092,0-0.166-0.029-0.225-0.087
			c-0.057-0.058-0.086-0.132-0.086-0.222v-5.576c0-0.09,0.029-0.164,0.086-0.223c0.059-0.059,0.133-0.087,0.225-0.087h1.482
			c0.385,0,0.729,0.08,1.029,0.241c0.303,0.162,0.539,0.388,0.711,0.679s0.258,0.622,0.258,0.991c0,0.408-0.109,0.765-0.328,1.072
			c-0.221,0.306-0.518,0.525-0.893,0.658l1.299,2.078C58.345,80.732,58.369,80.803,58.369,80.867z M56.22,78.106
			c0.264,0,0.504-0.054,0.717-0.163c0.215-0.108,0.381-0.258,0.5-0.448c0.119-0.19,0.178-0.407,0.178-0.651
			c0-0.253-0.059-0.48-0.178-0.682c-0.119-0.201-0.285-0.356-0.496-0.467c-0.211-0.111-0.451-0.167-0.721-0.167h-1.176v2.578H56.22z
			"/>
		<path fill="#F8DDDB" d="M59.835,75.417c-0.053-0.048-0.078-0.114-0.078-0.198c0-0.079,0.029-0.146,0.086-0.203
			c0.059-0.055,0.133-0.083,0.223-0.083h4.299c0.096,0,0.172,0.031,0.227,0.095s0.084,0.138,0.084,0.222
			c0,0.068-0.02,0.125-0.057,0.167l-4.117,5.156h3.863c0.092,0,0.166,0.024,0.225,0.075c0.057,0.05,0.086,0.117,0.086,0.202
			c0,0.08-0.029,0.146-0.086,0.198c-0.059,0.053-0.133,0.08-0.225,0.08h-4.338c-0.09,0-0.164-0.032-0.221-0.096
			c-0.061-0.062-0.088-0.134-0.088-0.213c0-0.08,0.02-0.142,0.062-0.19l4.102-5.141h-3.824
			C59.964,75.489,59.89,75.465,59.835,75.417z"/>
		<path fill="#F8DDDB" d="M71.339,80.819c0,0.085-0.031,0.157-0.092,0.218c-0.061,0.061-0.135,0.091-0.219,0.091
			c-0.139,0-0.236-0.063-0.293-0.19l-0.531-1.285h-3.07l-0.531,1.285c-0.043,0.127-0.137,0.19-0.287,0.19
			c-0.09,0-0.16-0.03-0.217-0.091c-0.055-0.061-0.084-0.133-0.084-0.218c0-0.053,0.008-0.098,0.023-0.135l2.334-5.537
			c0.059-0.143,0.158-0.214,0.301-0.214s0.24,0.071,0.293,0.214l2.34,5.545C71.328,80.729,71.339,80.771,71.339,80.819z
			 M69.99,79.122l-1.316-3.181l-1.316,3.181H69.99z"/>
	</g>
	<g>
		<path fill="#F8DDDB" d="M46.414,81.566c0.053,0.058,0.082,0.126,0.082,0.206c0,0.079-0.029,0.148-0.082,0.205
			c-0.055,0.057-0.123,0.086-0.203,0.086h-1.594c-0.084,0-0.152-0.028-0.209-0.083c-0.053-0.055-0.082-0.124-0.082-0.208
			c0-0.08,0.029-0.148,0.082-0.206c0.057-0.057,0.125-0.086,0.209-0.086h1.594C46.291,81.48,46.359,81.509,46.414,81.566z"/>
	</g>
</g>
</svg>
